<svg width="18" height="18" viewBox="0 0 18 18" fill="none" xmlns="http://www.w3.org/2000/svg">
<path d="M7.3125 11.8125V13.2188C7.3125 13.5917 7.46066 13.9494 7.72438 14.2131C7.9881 14.4768 8.34579 14.625 8.71875 14.625H14.3438C14.7167 14.625 15.0744 14.4768 15.3381 14.2131C15.6018 13.9494 15.75 13.5917 15.75 13.2188V4.78125C15.75 4.40829 15.6018 4.0506 15.3381 3.78688C15.0744 3.52316 14.7167 3.375 14.3438 3.375H9C8.2234 3.375 7.3125 4.00465 7.3125 4.78125V6.1875M5.0625 11.8125L2.25 9L5.0625 6.1875M11.8125 9H2.8125" stroke="#5D7285" stroke-width="1.2" stroke-linecap="round" stroke-linejoin="round"/>
</svg>
